<svg width="220" height="34" viewBox="0 0 220 34" fill="none" xmlns="http://www.w3.org/2000/svg">
<path d="M42.5234 10.625V22H41.0391V10.625H42.5234ZM46.1797 10.625V11.8594H37.3906V10.625H46.1797ZM51.7731 11.6328L48.0075 22H46.4684L50.8044 10.625H51.7966L51.7731 11.6328ZM54.9294 22L51.1559 11.6328L51.1325 10.625H52.1247L56.4762 22H54.9294ZM54.7341 17.7891V19.0234H48.3434V17.7891H54.7341ZM65.2572 10.625V11.8594H59.7728V22H58.2728V10.625H65.2572ZM59.4212 15.2578H62.5228C63.3561 15.2578 64.0593 15.3984 64.6322 15.6797C65.2051 15.9557 65.64 16.3438 65.9369 16.8438C66.2337 17.3438 66.3822 17.9297 66.3822 18.6016C66.3822 19.1016 66.2989 19.5599 66.1322 19.9766C65.9655 20.388 65.7181 20.7474 65.39 21.0547C65.0619 21.3568 64.6582 21.5911 64.1791 21.7578C63.6999 21.9193 63.1478 22 62.5228 22H58.2728V10.625H59.7806V20.7734H62.5228C63.0801 20.7734 63.5306 20.6719 63.8744 20.4688C64.2233 20.2604 64.4785 19.9896 64.64 19.6562C64.8015 19.3229 64.8822 18.9661 64.8822 18.5859C64.8822 18.2057 64.8015 17.8568 64.64 17.5391C64.4785 17.2214 64.2233 16.9688 63.8744 16.7812C63.5306 16.5885 63.0801 16.4922 62.5228 16.4922H59.4212V15.2578ZM76.0459 10.625V11.8594H70.8428V10.625H76.0459ZM77.3428 10.625V22H75.835V10.625H77.3428ZM70.3272 10.625H71.8272L71.5694 16.1953C71.5329 16.9974 71.4704 17.7135 71.3819 18.3438C71.2985 18.9688 71.1787 19.513 71.0225 19.9766C70.8662 20.4349 70.6631 20.8151 70.4131 21.1172C70.1631 21.4141 69.8558 21.6354 69.4912 21.7812C69.1319 21.9271 68.6996 22 68.1944 22H67.7881V20.7734L68.1006 20.75C68.3923 20.7292 68.6423 20.6641 68.8506 20.5547C69.0642 20.4401 69.2439 20.2682 69.3897 20.0391C69.5407 19.8099 69.6631 19.513 69.7569 19.1484C69.8506 18.7839 69.9235 18.3385 69.9756 17.8125C70.0329 17.2812 70.0772 16.6615 70.1084 15.9531L70.3272 10.625ZM81.9519 19.3906L87.5534 10.625H89.0612V22H87.5534V13.2266L81.9519 22H80.4519V10.625H81.9519V19.3906ZM101.991 20.7344L101.85 24.7422H100.498V22H99.3812V20.7344H101.991ZM92.1703 22V10.625H93.6859V20.7734H99.2875V10.625H100.795V22H92.1703ZM108.498 11.6328L104.732 22H103.193L107.529 10.625H108.522L108.498 11.6328ZM111.654 22L107.881 11.6328L107.857 10.625H108.85L113.201 22H111.654ZM111.459 17.7891V19.0234H105.068V17.7891H111.459Z" fill="#768396"/>
</svg>
