<svg width="220" height="34" viewBox="0 0 220 34" fill="none" xmlns="http://www.w3.org/2000/svg">
<rect x="38" y="15" width="4" height="4" rx="2" fill="#5F6388"/>
<rect x="38" y="15" width="4" height="4" rx="2" stroke="#5F6388" stroke-width="4"/>
<path d="M62.8984 10.625V22H61.3906V10.625H62.8984ZM69.9062 10.625L64.9688 16.8828H62.2969L62.0625 15.6328H64.0703L68.0391 10.625H69.9062ZM68.3906 22L64.1172 16.6875L64.9609 15.3672L70.2344 22H68.3906ZM80.4294 15.9531V16.6719C80.4294 17.526 80.3226 18.2917 80.1091 18.9688C79.8955 19.6458 79.5882 20.2214 79.1872 20.6953C78.7861 21.1693 78.3044 21.5312 77.7419 21.7812C77.1846 22.0312 76.5596 22.1562 75.8669 22.1562C75.195 22.1562 74.5778 22.0312 74.0153 21.7812C73.458 21.5312 72.9736 21.1693 72.5622 20.6953C72.1559 20.2214 71.8408 19.6458 71.6169 18.9688C71.3929 18.2917 71.2809 17.526 71.2809 16.6719V15.9531C71.2809 15.099 71.3903 14.3359 71.6091 13.6641C71.833 12.987 72.1481 12.4115 72.5544 11.9375C72.9606 11.4583 73.4424 11.0938 73.9997 10.8438C74.5622 10.5938 75.1794 10.4688 75.8512 10.4688C76.544 10.4688 77.169 10.5938 77.7262 10.8438C78.2887 11.0938 78.7705 11.4583 79.1716 11.9375C79.5778 12.4115 79.8877 12.987 80.1012 13.6641C80.32 14.3359 80.4294 15.099 80.4294 15.9531ZM78.9372 16.6719V15.9375C78.9372 15.2604 78.8669 14.6615 78.7262 14.1406C78.5908 13.6198 78.3903 13.1823 78.1247 12.8281C77.8591 12.474 77.5335 12.2057 77.1481 12.0234C76.7679 11.8411 76.3356 11.75 75.8512 11.75C75.3825 11.75 74.958 11.8411 74.5778 12.0234C74.2028 12.2057 73.8799 12.474 73.6091 12.8281C73.3434 13.1823 73.1377 13.6198 72.9919 14.1406C72.846 14.6615 72.7731 15.2604 72.7731 15.9375V16.6719C72.7731 17.3542 72.846 17.9583 72.9919 18.4844C73.1377 19.0052 73.346 19.4453 73.6169 19.8047C73.8929 20.1589 74.2184 20.4271 74.5934 20.6094C74.9736 20.7917 75.3981 20.8828 75.8669 20.8828C76.3565 20.8828 76.7914 20.7917 77.1716 20.6094C77.5518 20.4271 77.8721 20.1589 78.1325 19.8047C78.3981 19.4453 78.5986 19.0052 78.7341 18.4844C78.8695 17.9583 78.9372 17.3542 78.9372 16.6719ZM83.4837 10.625H84.9447L88.6712 19.8984L92.39 10.625H93.8587L89.2337 22H88.0931L83.4837 10.625ZM83.0072 10.625H84.2962L84.5072 17.5625V22H83.0072V10.625ZM93.0384 10.625H94.3275V22H92.8275V17.5625L93.0384 10.625ZM101.647 11.6328L97.8819 22H96.3428L100.679 10.625H101.671L101.647 11.6328ZM104.804 22L101.03 11.6328L101.007 10.625H101.999L106.351 22H104.804ZM104.608 17.7891V19.0234H98.2178V17.7891H104.608ZM115.624 15.5156V16.7422H109.467V15.5156H115.624ZM109.702 10.625V22H108.194V10.625H109.702ZM116.936 10.625V22H115.436V10.625H116.936ZM129.053 20.7734V22H120.444V20.7734H129.053ZM120.686 20.7734V24.7969H119.194L119.186 20.7734H120.686ZM130.366 20.7734L130.35 24.7891H128.858V20.7734H130.366ZM127.577 10.625V11.8594H122.592V10.625H127.577ZM128.873 10.625V22H127.373V10.625H128.873ZM122.077 10.625H123.584L123.35 15.2031C123.319 15.8906 123.254 16.526 123.155 17.1094C123.056 17.6875 122.933 18.2161 122.787 18.6953C122.642 19.1745 122.475 19.6042 122.287 19.9844C122.1 20.3594 121.899 20.6849 121.686 20.9609C121.472 21.2318 121.248 21.4557 121.014 21.6328C120.785 21.8047 120.553 21.9271 120.319 22H119.631V20.7734H120.116C120.251 20.6276 120.405 20.4167 120.577 20.1406C120.754 19.8646 120.928 19.5078 121.1 19.0703C121.277 18.6276 121.431 18.0885 121.561 17.4531C121.696 16.8177 121.787 16.0677 121.834 15.2031L122.077 10.625ZM136.795 11.6328L133.029 22H131.49L135.826 10.625H136.818L136.795 11.6328ZM139.951 22L136.178 11.6328L136.154 10.625H137.147L141.498 22H139.951ZM139.756 17.7891V19.0234H133.365V17.7891H139.756ZM149.365 15.6016H150.396C150.901 15.6016 151.318 15.5182 151.646 15.3516C151.979 15.1797 152.227 14.9479 152.388 14.6562C152.555 14.3594 152.638 14.026 152.638 13.6562C152.638 13.2188 152.565 12.8516 152.419 12.5547C152.274 12.2578 152.055 12.0339 151.763 11.8828C151.471 11.7318 151.102 11.6562 150.654 11.6562C150.247 11.6562 149.888 11.737 149.576 11.8984C149.268 12.0547 149.026 12.2786 148.849 12.5703C148.677 12.862 148.591 13.2057 148.591 13.6016H147.146C147.146 13.0234 147.292 12.4974 147.583 12.0234C147.875 11.5495 148.284 11.1719 148.81 10.8906C149.341 10.6094 149.956 10.4688 150.654 10.4688C151.341 10.4688 151.943 10.5911 152.458 10.8359C152.974 11.0755 153.375 11.4349 153.662 11.9141C153.948 12.388 154.091 12.9792 154.091 13.6875C154.091 13.974 154.024 14.2812 153.888 14.6094C153.758 14.9323 153.552 15.2344 153.271 15.5156C152.995 15.7969 152.636 16.0286 152.193 16.2109C151.75 16.388 151.219 16.4766 150.599 16.4766H149.365V15.6016ZM149.365 16.7891V15.9219H150.599C151.323 15.9219 151.922 16.0078 152.396 16.1797C152.87 16.3516 153.242 16.5807 153.513 16.8672C153.789 17.1536 153.982 17.4688 154.091 17.8125C154.206 18.151 154.263 18.4896 154.263 18.8281C154.263 19.3594 154.172 19.8307 153.99 20.2422C153.813 20.6536 153.56 21.0026 153.232 21.2891C152.909 21.5755 152.529 21.7917 152.091 21.9375C151.654 22.0833 151.177 22.1562 150.662 22.1562C150.167 22.1562 149.701 22.0859 149.263 21.9453C148.831 21.8047 148.448 21.6016 148.115 21.3359C147.781 21.0651 147.521 20.7344 147.333 20.3438C147.146 19.9479 147.052 19.4974 147.052 18.9922H148.497C148.497 19.388 148.583 19.7344 148.755 20.0312C148.932 20.3281 149.182 20.5599 149.505 20.7266C149.833 20.888 150.219 20.9688 150.662 20.9688C151.104 20.9688 151.484 20.8932 151.802 20.7422C152.125 20.5859 152.372 20.3516 152.544 20.0391C152.721 19.7266 152.81 19.3333 152.81 18.8594C152.81 18.3854 152.711 17.9974 152.513 17.6953C152.315 17.388 152.034 17.1615 151.669 17.0156C151.31 16.8646 150.886 16.7891 150.396 16.7891H149.365Z" fill="#768396"/>
</svg>
