<svg width="220" height="34" viewBox="0 0 220 34" fill="none" xmlns="http://www.w3.org/2000/svg">
<path fill-rule="evenodd" clip-rule="evenodd" d="M15.7196 6.76532C16.4613 6.14724 17.5387 6.14724 18.2804 6.76532L25.9206 13.1321C26.6045 13.7021 27 14.5465 27 15.4368V24C27 25.6569 25.6569 27 24 27H20.5C19.6716 27 19 26.3285 19 25.5V19H15V25.5C15 26.3285 14.3284 27 13.5 27H10C8.34315 27 7 25.6569 7 24V15.4368C7 14.5465 7.39547 13.7021 8.07945 13.1321L15.7196 6.76532ZM24.6402 14.6686L17 8.30176L9.35982 14.6686C9.13182 14.8586 9 15.14 9 15.4368V24C9 24.5523 9.44772 25 10 25H13V19C13 17.8955 13.8954 17 15 17H19C20.1046 17 21 17.8955 21 19V25H24C24.5523 25 25 24.5523 25 24V15.4368C25 15.14 24.8682 14.8586 24.6402 14.6686Z" fill="#5F6388"/>
<path d="M45.375 10.625V11.8594H39.8906V22H38.3906V10.625H45.375ZM53.9997 10.625V11.8594H48.7966V10.625H53.9997ZM55.2966 10.625V22H53.7887V10.625H55.2966ZM48.2809 10.625H49.7809L49.5231 16.1953C49.4867 16.9974 49.4242 17.7135 49.3356 18.3438C49.2523 18.9688 49.1325 19.513 48.9762 19.9766C48.82 20.4349 48.6169 20.8151 48.3669 21.1172C48.1169 21.4141 47.8096 21.6354 47.445 21.7812C47.0856 21.9271 46.6533 22 46.1481 22H45.7419V20.7734L46.0544 20.75C46.346 20.7292 46.596 20.6641 46.8044 20.5547C47.0179 20.4401 47.1976 20.2682 47.3434 20.0391C47.4945 19.8099 47.6169 19.513 47.7106 19.1484C47.8044 18.7839 47.8773 18.3385 47.9294 17.8125C47.9867 17.2812 48.0309 16.6615 48.0622 15.9531L48.2809 10.625ZM62.6869 11.6328L58.9212 22H57.3822L61.7181 10.625H62.7103L62.6869 11.6328ZM65.8431 22L62.0697 11.6328L62.0462 10.625H63.0384L67.39 22H65.8431ZM65.6478 17.7891V19.0234H59.2572V17.7891H65.6478ZM73.2881 16.6797H70.4053L70.3897 15.4688H73.0069C73.4392 15.4688 73.8168 15.3958 74.1397 15.25C74.4626 15.1042 74.7126 14.8958 74.8897 14.625C75.072 14.349 75.1631 14.0208 75.1631 13.6406C75.1631 13.224 75.0824 12.8854 74.9209 12.625C74.7647 12.3594 74.5225 12.1667 74.1944 12.0469C73.8715 11.9219 73.46 11.8594 72.96 11.8594H70.7412V22H69.2334V10.625H72.96C73.5433 10.625 74.0642 10.6849 74.5225 10.8047C74.9808 10.9193 75.3689 11.1016 75.6866 11.3516C76.0095 11.5964 76.2543 11.9089 76.4209 12.2891C76.5876 12.6693 76.6709 13.125 76.6709 13.6562C76.6709 14.125 76.5511 14.5495 76.3116 14.9297C76.072 15.3047 75.7386 15.612 75.3116 15.8516C74.8897 16.0911 74.3949 16.2448 73.8272 16.3125L73.2881 16.6797ZM73.2178 22H69.8116L70.6631 20.7734H73.2178C73.697 20.7734 74.1032 20.6901 74.4366 20.5234C74.7751 20.3568 75.0329 20.1224 75.21 19.8203C75.3871 19.513 75.4756 19.151 75.4756 18.7344C75.4756 18.3125 75.4001 17.9479 75.2491 17.6406C75.098 17.3333 74.861 17.0964 74.5381 16.9297C74.2152 16.763 73.7985 16.6797 73.2881 16.6797H71.1397L71.1553 15.4688H74.0928L74.4131 15.9062C74.96 15.9531 75.4235 16.1094 75.8037 16.375C76.184 16.6354 76.473 16.9688 76.6709 17.375C76.8741 17.7812 76.9756 18.2292 76.9756 18.7188C76.9756 19.4271 76.8194 20.026 76.5069 20.5156C76.1996 21 75.7647 21.3698 75.2022 21.625C74.6397 21.875 73.9782 22 73.2178 22ZM86.9519 15.5156V16.7422H80.7956V15.5156H86.9519ZM81.03 10.625V22H79.5222V10.625H81.03ZM88.2644 10.625V22H86.7644V10.625H88.2644ZM95.6156 11.6328L91.85 22H90.3109L94.6469 10.625H95.6391L95.6156 11.6328ZM98.7719 22L94.9984 11.6328L94.975 10.625H95.9672L100.319 22H98.7719ZM98.5766 17.7891V19.0234H92.1859V17.7891H98.5766ZM108.475 17.5703H105.279L104.537 17.2656C103.714 17.0052 103.081 16.6068 102.639 16.0703C102.196 15.5286 101.975 14.8568 101.975 14.0547C101.975 13.3203 102.136 12.6979 102.459 12.1875C102.787 11.6771 103.251 11.2891 103.85 11.0234C104.454 10.7578 105.167 10.625 105.99 10.625H109.631V22H108.123V11.8594H105.99C105.157 11.8594 104.529 12.0573 104.107 12.4531C103.691 12.849 103.482 13.3828 103.482 14.0547C103.482 14.4922 103.574 14.8828 103.756 15.2266C103.943 15.5703 104.219 15.8411 104.584 16.0391C104.949 16.237 105.402 16.3359 105.943 16.3359H108.482L108.475 17.5703ZM105.912 16.7891L103.147 22H101.545L104.389 16.7891H105.912Z" fill="#768396"/>
</svg>
