<svg width="220" height="24" viewBox="0 0 220 24" fill="none" xmlns="http://www.w3.org/2000/svg">
<path fill-rule="evenodd" clip-rule="evenodd" d="M15.7196 1.76532C16.4613 1.14724 17.5387 1.14724 18.2804 1.76532L25.9206 8.13213C26.6045 8.70212 27 9.54646 27 10.4368V19C27 20.6569 25.6569 22 24 22H20.5C19.6716 22 19 21.3285 19 20.5V14H15V20.5C15 21.3285 14.3284 22 13.5 22H10C8.34315 22 7 20.6569 7 19V10.4368C7 9.54646 7.39547 8.70212 8.07945 8.13214L15.7196 1.76532ZM24.6402 9.66858L17 3.30176L9.35982 9.66858C9.13182 9.85857 9 10.14 9 10.4368V19C9 19.5523 9.44772 20 10 20H13V14C13 12.8955 13.8954 12 15 12H19C20.1046 12 21 12.8955 21 14V20H24C24.5523 20 25 19.5523 25 19V10.4368C25 10.14 24.8682 9.85857 24.6402 9.66858Z" fill="#5051F9"/>
<path d="M45.375 5.625V6.85938H39.8906V17H38.3906V5.625H45.375ZM53.9997 5.625V6.85938H48.7966V5.625H53.9997ZM55.2966 5.625V17H53.7887V5.625H55.2966ZM48.2809 5.625H49.7809L49.5231 11.1953C49.4867 11.9974 49.4242 12.7135 49.3356 13.3438C49.2523 13.9688 49.1325 14.513 48.9762 14.9766C48.82 15.4349 48.6169 15.8151 48.3669 16.1172C48.1169 16.4141 47.8096 16.6354 47.445 16.7812C47.0856 16.9271 46.6533 17 46.1481 17H45.7419V15.7734L46.0544 15.75C46.346 15.7292 46.596 15.6641 46.8044 15.5547C47.0179 15.4401 47.1976 15.2682 47.3434 15.0391C47.4945 14.8099 47.6169 14.513 47.7106 14.1484C47.8044 13.7839 47.8773 13.3385 47.9294 12.8125C47.9867 12.2812 48.0309 11.6615 48.0622 10.9531L48.2809 5.625ZM62.6869 6.63281L58.9212 17H57.3822L61.7181 5.625H62.7103L62.6869 6.63281ZM65.8431 17L62.0697 6.63281L62.0462 5.625H63.0384L67.39 17H65.8431ZM65.6478 12.7891V14.0234H59.2572V12.7891H65.6478ZM73.2881 11.6797H70.4053L70.3897 10.4688H73.0069C73.4392 10.4688 73.8168 10.3958 74.1397 10.25C74.4626 10.1042 74.7126 9.89583 74.8897 9.625C75.072 9.34896 75.1631 9.02083 75.1631 8.64062C75.1631 8.22396 75.0824 7.88542 74.9209 7.625C74.7647 7.35938 74.5225 7.16667 74.1944 7.04688C73.8715 6.92188 73.46 6.85938 72.96 6.85938H70.7412V17H69.2334V5.625H72.96C73.5433 5.625 74.0642 5.6849 74.5225 5.80469C74.9808 5.91927 75.3689 6.10156 75.6866 6.35156C76.0095 6.59635 76.2543 6.90885 76.4209 7.28906C76.5876 7.66927 76.6709 8.125 76.6709 8.65625C76.6709 9.125 76.5511 9.54948 76.3116 9.92969C76.072 10.3047 75.7386 10.612 75.3116 10.8516C74.8897 11.0911 74.3949 11.2448 73.8272 11.3125L73.2881 11.6797ZM73.2178 17H69.8116L70.6631 15.7734H73.2178C73.697 15.7734 74.1032 15.6901 74.4366 15.5234C74.7751 15.3568 75.0329 15.1224 75.21 14.8203C75.3871 14.513 75.4756 14.151 75.4756 13.7344C75.4756 13.3125 75.4001 12.9479 75.2491 12.6406C75.098 12.3333 74.861 12.0964 74.5381 11.9297C74.2152 11.763 73.7985 11.6797 73.2881 11.6797H71.1397L71.1553 10.4688H74.0928L74.4131 10.9062C74.96 10.9531 75.4235 11.1094 75.8037 11.375C76.184 11.6354 76.473 11.9688 76.6709 12.375C76.8741 12.7812 76.9756 13.2292 76.9756 13.7188C76.9756 14.4271 76.8194 15.026 76.5069 15.5156C76.1996 16 75.7647 16.3698 75.2022 16.625C74.6397 16.875 73.9782 17 73.2178 17ZM86.9519 10.5156V11.7422H80.7956V10.5156H86.9519ZM81.03 5.625V17H79.5222V5.625H81.03ZM88.2644 5.625V17H86.7644V5.625H88.2644ZM95.6156 6.63281L91.85 17H90.3109L94.6469 5.625H95.6391L95.6156 6.63281ZM98.7719 17L94.9984 6.63281L94.975 5.625H95.9672L100.319 17H98.7719ZM98.5766 12.7891V14.0234H92.1859V12.7891H98.5766ZM108.475 12.5703H105.279L104.537 12.2656C103.714 12.0052 103.081 11.6068 102.639 11.0703C102.196 10.5286 101.975 9.85677 101.975 9.05469C101.975 8.32031 102.136 7.69792 102.459 7.1875C102.787 6.67708 103.251 6.28906 103.85 6.02344C104.454 5.75781 105.167 5.625 105.99 5.625H109.631V17H108.123V6.85938H105.99C105.157 6.85938 104.529 7.05729 104.107 7.45312C103.691 7.84896 103.482 8.38281 103.482 9.05469C103.482 9.49219 103.574 9.88281 103.756 10.2266C103.943 10.5703 104.219 10.8411 104.584 11.0391C104.949 11.237 105.402 11.3359 105.943 11.3359H108.482L108.475 12.5703ZM105.912 11.7891L103.147 17H101.545L104.389 11.7891H105.912Z" fill="#768396"/>
</svg>
