<svg width="11" height="18" viewBox="0 0 11 18" fill="none" xmlns="http://www.w3.org/2000/svg">
<path d="M3.61962 6.10703V12.5817C3.62745 13.0552 3.82982 13.5067 4.18307 13.8389C4.53632 14.1711 5.01211 14.3572 5.50777 14.3572C6.00344 14.3572 6.47923 14.1711 6.83248 13.8389C7.18572 13.5067 7.3881 13.0552 7.39593 12.5817L7.40205 4.09508C7.40719 3.69041 7.3282 3.28879 7.16965 2.9135C7.0111 2.53821 6.77615 2.19672 6.47842 1.90882C6.18069 1.62092 5.8261 1.39234 5.43521 1.23634C5.04431 1.08033 4.62489 1 4.20126 1C3.77763 1 3.35821 1.08033 2.96732 1.23634C2.57643 1.39234 2.22184 1.62092 1.92411 1.90882C1.62637 2.19672 1.39142 2.53821 1.23288 2.9135C1.07433 3.28879 0.995332 3.69041 1.00047 4.09508V12.6389C0.991841 13.2086 1.10185 13.7743 1.3241 14.303C1.54635 14.8318 1.8764 15.313 2.29508 15.7188C2.71376 16.1246 3.2127 16.4468 3.7629 16.6668C4.31309 16.8867 4.90357 17 5.5 17C6.09643 17 6.68691 16.8867 7.2371 16.6668C7.7873 16.4468 8.28624 16.1246 8.70492 15.7188C9.1236 15.313 9.45365 14.8318 9.6759 14.303C9.89815 13.7743 10.0082 13.2086 9.99953 12.6389V4.65501" stroke="#768396" stroke-width="1.2" stroke-miterlimit="10" stroke-linecap="round"/>
</svg>
