<svg width="20" height="21" viewBox="0 0 20 21" fill="none" xmlns="http://www.w3.org/2000/svg">
<path fill-rule="evenodd" clip-rule="evenodd" d="M8.71963 0.765315C9.46132 0.147239 10.5387 0.147238 11.2804 0.765315L18.9206 7.13213C19.6045 7.70212 20 8.54646 20 9.4368V18C20 19.6569 18.6569 21 17 21H13.5C12.6716 21 12 20.3285 12 19.5V13H8V19.5C8 20.3285 7.32843 21 6.5 21H3C1.34315 21 0 19.6569 0 18V9.4368C0 8.54646 0.395469 7.70212 1.07945 7.13214L8.71963 0.765315ZM17.6402 8.66858L10 2.30176L2.35982 8.66858C2.13182 8.85857 2 9.14002 2 9.4368V18C2 18.5523 2.44772 19 3 19H6V13C6 11.8955 6.89543 11 8 11H12C13.1046 11 14 11.8955 14 13V19H17C17.5523 19 18 18.5523 18 18V9.4368C18 9.14002 17.8682 8.85857 17.6402 8.66858Z" fill="#5051F9"/>
</svg>
