<svg width="24" height="24" viewBox="0 0 24 24" fill="none" xmlns="http://www.w3.org/2000/svg">
<path d="M16.2925 8.71244L18.5925 11.0024H9.00255C8.73733 11.0024 8.48298 11.1078 8.29544 11.2953C8.1079 11.4829 8.00255 11.7372 8.00255 12.0024C8.00255 12.2677 8.1079 12.522 8.29544 12.7095C8.48298 12.8971 8.73733 13.0024 9.00255 13.0024H18.5925L16.2925 15.2924C16.1988 15.3854 16.1244 15.496 16.0737 15.6179C16.0229 15.7397 15.9967 15.8704 15.9967 16.0024C15.9967 16.1345 16.0229 16.2652 16.0737 16.387C16.1244 16.5089 16.1988 16.6195 16.2925 16.7124C16.3855 16.8062 16.4961 16.8806 16.618 16.9313C16.7398 16.9821 16.8705 17.0082 17.0025 17.0082C17.1346 17.0082 17.2653 16.9821 17.3871 16.9313C17.509 16.8806 17.6196 16.8062 17.7125 16.7124L21.7125 12.7124C21.8036 12.6173 21.875 12.5052 21.9225 12.3824C22.0226 12.139 22.0226 11.8659 21.9225 11.6224C21.875 11.4997 21.8036 11.3875 21.7125 11.2924L17.7125 7.29244C17.6193 7.1992 17.5086 7.12524 17.3868 7.07478C17.265 7.02432 17.1344 6.99835 17.0025 6.99835C16.8707 6.99835 16.7401 7.02432 16.6183 7.07478C16.4965 7.12524 16.3858 7.1992 16.2925 7.29244C16.1993 7.38568 16.1253 7.49637 16.0749 7.61819C16.0244 7.74001 15.9985 7.87058 15.9985 8.00244C15.9985 8.1343 16.0244 8.26487 16.0749 8.38669C16.1253 8.50851 16.1993 8.6192 16.2925 8.71244ZM12.0025 21.0024C12.0025 20.7372 11.8972 20.4829 11.7097 20.2953C11.5221 20.1078 11.2678 20.0024 11.0025 20.0024H5.00254C4.73733 20.0024 4.48297 19.8971 4.29544 19.7095C4.1079 19.522 4.00254 19.2677 4.00254 19.0024V5.00244C4.00254 4.73722 4.1079 4.48287 4.29544 4.29533C4.48297 4.1078 4.73733 4.00244 5.00254 4.00244H11.0025C11.2678 4.00244 11.5221 3.89708 11.7097 3.70955C11.8972 3.52201 12.0025 3.26766 12.0025 3.00244C12.0025 2.73722 11.8972 2.48287 11.7097 2.29533C11.5221 2.1078 11.2678 2.00244 11.0025 2.00244H5.00254C4.2069 2.00244 3.44383 2.31851 2.88122 2.88112C2.31861 3.44373 2.00254 4.20679 2.00254 5.00244V19.0024C2.00254 19.7981 2.31861 20.5612 2.88122 21.1238C3.44383 21.6864 4.2069 22.0024 5.00254 22.0024H11.0025C11.2678 22.0024 11.5221 21.8971 11.7097 21.7095C11.8972 21.522 12.0025 21.2677 12.0025 21.0024Z" fill="#5F6388"/>
</svg>
