<svg width="135" height="24" viewBox="0 0 135 24" fill="none" xmlns="http://www.w3.org/2000/svg">
<path d="M19.5 3.75H4.5C3.25736 3.75 2.25 4.75736 2.25 6V19.5C2.25 20.7426 3.25736 21.75 4.5 21.75H19.5C20.7426 21.75 21.75 20.7426 21.75 19.5V6C21.75 4.75736 20.7426 3.75 19.5 3.75Z" stroke="#5051F9" stroke-linejoin="round"/>
<path d="M13.875 12C14.4963 12 15 11.4963 15 10.875C15 10.2537 14.4963 9.75 13.875 9.75C13.2537 9.75 12.75 10.2537 12.75 10.875C12.75 11.4963 13.2537 12 13.875 12Z" fill="#5051F9"/>
<path d="M17.625 12C18.2463 12 18.75 11.4963 18.75 10.875C18.75 10.2537 18.2463 9.75 17.625 9.75C17.0037 9.75 16.5 10.2537 16.5 10.875C16.5 11.4963 17.0037 12 17.625 12Z" fill="#5051F9"/>
<path d="M13.875 15.75C14.4963 15.75 15 15.2463 15 14.625C15 14.0037 14.4963 13.5 13.875 13.5C13.2537 13.5 12.75 14.0037 12.75 14.625C12.75 15.2463 13.2537 15.75 13.875 15.75Z" fill="#5051F9"/>
<path d="M17.625 15.75C18.2463 15.75 18.75 15.2463 18.75 14.625C18.75 14.0037 18.2463 13.5 17.625 13.5C17.0037 13.5 16.5 14.0037 16.5 14.625C16.5 15.2463 17.0037 15.75 17.625 15.75Z" fill="#5051F9"/>
<path d="M6.375 15.75C6.99632 15.75 7.5 15.2463 7.5 14.625C7.5 14.0037 6.99632 13.5 6.375 13.5C5.75368 13.5 5.25 14.0037 5.25 14.625C5.25 15.2463 5.75368 15.75 6.375 15.75Z" fill="#5051F9"/>
<path d="M10.125 15.75C10.7463 15.75 11.25 15.2463 11.25 14.625C11.25 14.0037 10.7463 13.5 10.125 13.5C9.50368 13.5 9 14.0037 9 14.625C9 15.2463 9.50368 15.75 10.125 15.75Z" fill="#5051F9"/>
<path d="M6.375 19.5C6.99632 19.5 7.5 18.9963 7.5 18.375C7.5 17.7537 6.99632 17.25 6.375 17.25C5.75368 17.25 5.25 17.7537 5.25 18.375C5.25 18.9963 5.75368 19.5 6.375 19.5Z" fill="#5051F9"/>
<path d="M10.125 19.5C10.7463 19.5 11.25 18.9963 11.25 18.375C11.25 17.7537 10.7463 17.25 10.125 17.25C9.50368 17.25 9 17.7537 9 18.375C9 18.9963 9.50368 19.5 10.125 19.5Z" fill="#5051F9"/>
<path d="M13.875 19.5C14.4963 19.5 15 18.9963 15 18.375C15 17.7537 14.4963 17.25 13.875 17.25C13.2537 17.25 12.75 17.7537 12.75 18.375C12.75 18.9963 13.2537 19.5 13.875 19.5Z" fill="#5051F9"/>
<path d="M6 2.25V3.75" stroke="#5051F9" stroke-linecap="round" stroke-linejoin="round"/>
<path d="M18 2.25V3.75" stroke="#5051F9" stroke-linecap="round" stroke-linejoin="round"/>
<path d="M21.75 7.5H2.25" stroke="#5051F9" stroke-linejoin="round"/>
<path d="M36.5 18V6.552H32.072V5.4H42.26V6.552H37.832V18H36.5ZM41.7391 18L47.4991 5.4H48.8131L54.5731 18H53.1691L47.8771 6.174H48.4171L43.1251 18H41.7391ZM44.0071 14.634L44.4031 13.554H51.7291L52.1251 14.634H44.0071ZM60.1315 18.108C59.1955 18.108 58.2955 17.958 57.4315 17.658C56.5795 17.346 55.9195 16.95 55.4515 16.47L55.9735 15.444C56.4175 15.876 57.0115 16.242 57.7555 16.542C58.5115 16.83 59.3035 16.974 60.1315 16.974C60.9235 16.974 61.5655 16.878 62.0575 16.686C62.5615 16.482 62.9275 16.212 63.1555 15.876C63.3955 15.54 63.5155 15.168 63.5155 14.76C63.5155 14.268 63.3715 13.872 63.0835 13.572C62.8075 13.272 62.4415 13.038 61.9855 12.87C61.5295 12.69 61.0255 12.534 60.4735 12.402C59.9215 12.27 59.3695 12.132 58.8175 11.988C58.2655 11.832 57.7555 11.628 57.2875 11.376C56.8315 11.124 56.4595 10.794 56.1715 10.386C55.8955 9.966 55.7575 9.42 55.7575 8.748C55.7575 8.124 55.9195 7.554 56.2435 7.038C56.5795 6.51 57.0895 6.09 57.7735 5.778C58.4575 5.454 59.3335 5.292 60.4015 5.292C61.1095 5.292 61.8115 5.394 62.5075 5.598C63.2035 5.79 63.8035 6.06 64.3075 6.408L63.8575 7.47C63.3175 7.11 62.7415 6.846 62.1295 6.678C61.5295 6.51 60.9475 6.426 60.3835 6.426C59.6275 6.426 59.0035 6.528 58.5115 6.732C58.0195 6.936 57.6535 7.212 57.4135 7.56C57.1855 7.896 57.0715 8.28 57.0715 8.712C57.0715 9.204 57.2095 9.6 57.4855 9.9C57.7735 10.2 58.1455 10.434 58.6015 10.602C59.0695 10.77 59.5795 10.92 60.1315 11.052C60.6835 11.184 61.2295 11.328 61.7695 11.484C62.3215 11.64 62.8255 11.844 63.2815 12.096C63.7495 12.336 64.1215 12.66 64.3975 13.068C64.6855 13.476 64.8295 14.01 64.8295 14.67C64.8295 15.282 64.6615 15.852 64.3255 16.38C63.9895 16.896 63.4735 17.316 62.7775 17.64C62.0935 17.952 61.2115 18.108 60.1315 18.108ZM68.8837 14.868L68.8297 13.248L76.4617 5.4H77.9917L72.4297 11.232L71.6737 12.042L68.8837 14.868ZM67.7317 18V5.4H69.0637V18H67.7317ZM76.7857 18L71.3497 11.736L72.2497 10.764L78.3697 18H76.7857ZM81.7166 11.502H88.3766V12.654H81.7166V11.502ZM81.8606 18H80.5286V5.4H89.1686V6.552H81.8606V18ZM91.9192 18V5.4H93.2512V16.848H100.307V18H91.9192ZM107.781 18.108C106.833 18.108 105.951 17.952 105.135 17.64C104.331 17.316 103.629 16.866 103.029 16.29C102.441 15.702 101.979 15.024 101.643 14.256C101.319 13.476 101.157 12.624 101.157 11.7C101.157 10.776 101.319 9.93 101.643 9.162C101.979 8.382 102.441 7.704 103.029 7.128C103.629 6.54 104.331 6.09 105.135 5.778C105.939 5.454 106.821 5.292 107.781 5.292C108.729 5.292 109.605 5.454 110.409 5.778C111.213 6.09 111.909 6.534 112.497 7.11C113.097 7.686 113.559 8.364 113.883 9.144C114.219 9.924 114.387 10.776 114.387 11.7C114.387 12.624 114.219 13.476 113.883 14.256C113.559 15.036 113.097 15.714 112.497 16.29C111.909 16.866 111.213 17.316 110.409 17.64C109.605 17.952 108.729 18.108 107.781 18.108ZM107.781 16.92C108.537 16.92 109.233 16.794 109.869 16.542C110.517 16.278 111.075 15.912 111.543 15.444C112.023 14.964 112.395 14.412 112.659 13.788C112.923 13.152 113.055 12.456 113.055 11.7C113.055 10.944 112.923 10.254 112.659 9.63C112.395 8.994 112.023 8.442 111.543 7.974C111.075 7.494 110.517 7.128 109.869 6.876C109.233 6.612 108.537 6.48 107.781 6.48C107.025 6.48 106.323 6.612 105.675 6.876C105.027 7.128 104.463 7.494 103.983 7.974C103.515 8.442 103.143 8.994 102.867 9.63C102.603 10.254 102.471 10.944 102.471 11.7C102.471 12.444 102.603 13.134 102.867 13.77C103.143 14.406 103.515 14.964 103.983 15.444C104.463 15.912 105.027 16.278 105.675 16.542C106.323 16.794 107.025 16.92 107.781 16.92ZM119.865 18L115.617 5.4H116.985L120.963 17.262H120.279L124.383 5.4H125.607L129.657 17.262H129.009L133.023 5.4H134.301L130.053 18H128.649L124.779 6.75H125.139L121.251 18H119.865Z" fill="#232360"/>
</svg>
