<svg width="15" height="16" viewBox="0 0 15 16" fill="none" xmlns="http://www.w3.org/2000/svg">
<path d="M7.50036 2.71644C11.1575 2.71644 14.1223 5.69007 14.1223 9.35823C14.1223 13.0264 11.1575 16 7.50036 16C3.84317 16 0.878458 13.0264 0.878458 9.35824C0.882883 5.69186 3.84497 2.72089 7.49994 2.71644H7.50036ZM7.50036 14.9333C10.5702 14.9333 13.0588 12.4373 13.0588 9.35823C13.0588 6.27918 10.5702 3.78308 7.50036 3.78308C4.43051 3.78308 1.94192 6.27915 1.94192 9.3582C1.94555 12.4358 4.43199 14.9297 7.50002 14.9333H7.50037L7.50036 14.9333ZM0.919554 5.55168L0 5.01333C0.689447 3.84164 1.60218 2.87371 2.68683 2.14261L2.71825 2.12266L3.30602 3.01157C2.32599 3.67152 1.52461 4.52208 0.93912 5.51579L0.919569 5.55165L0.919554 5.55168ZM14.0812 5.55168C13.4761 4.5221 12.6747 3.67155 11.7222 3.02908L11.6947 3.01158L12.2825 2.1227C13.3982 2.8738 14.3108 3.84174 14.9777 4.97258L15 5.01336L14.0812 5.55168ZM8.03209 3.2498H6.96863V0.533391H8.03209V3.2498ZM8.85453 1.06667H6.14619V0H8.85453V1.06667ZM1.78594 15.8436L1.0344 15.0898L2.82107 13.2978L3.57256 14.0516L1.78594 15.8436ZM13.2148 15.8436L11.4281 14.0516L12.1796 13.2978L13.9663 15.0898L13.2148 15.8436ZM8.03207 10.0338H6.96863V5.28355H8.03209L8.03207 10.0338Z" fill="#5F6388"/>
</svg>
