<svg width="31" height="31" viewBox="0 0 31 31" fill="none" xmlns="http://www.w3.org/2000/svg">
<path d="M8 20C8 18.8447 8 18.267 8.26005 17.8426C8.40556 17.6052 8.6052 17.4056 8.84265 17.26C9.26701 17 9.84467 17 11 17C12.1553 17 12.733 17 13.1574 17.26C13.3948 17.4056 13.5944 17.6052 13.74 17.8426C14 18.267 14 18.8447 14 20C14 21.1553 14 21.733 13.74 22.1574C13.5944 22.3948 13.3948 22.5944 13.1574 22.74C12.733 23 12.1553 23 11 23C9.84467 23 9.26701 23 8.84265 22.74C8.6052 22.5944 8.40556 22.3948 8.26005 22.1574C8 21.733 8 21.1553 8 20Z" stroke="#5F6388" stroke-width="1.8"/>
<path d="M17 20C17 18.8447 17 18.267 17.26 17.8426C17.4056 17.6052 17.6052 17.4056 17.8426 17.26C18.267 17 18.8447 17 20 17C21.1553 17 21.733 17 22.1574 17.26C22.3948 17.4056 22.5944 17.6052 22.74 17.8426C23 18.267 23 18.8447 23 20C23 21.1553 23 21.733 22.74 22.1574C22.5944 22.3948 22.3948 22.5944 22.1574 22.74C21.733 23 21.1553 23 20 23C18.8447 23 18.267 23 17.8426 22.74C17.6052 22.5944 17.4056 22.3948 17.26 22.1574C17 21.733 17 21.1553 17 20Z" stroke="#5F6388" stroke-width="1.8"/>
<path d="M8 11C8 9.84467 8 9.26701 8.26005 8.84265C8.40556 8.6052 8.6052 8.40556 8.84265 8.26005C9.26701 8 9.84467 8 11 8C12.1553 8 12.733 8 13.1574 8.26005C13.3948 8.40556 13.5944 8.6052 13.74 8.84265C14 9.26701 14 9.84467 14 11C14 12.1553 14 12.733 13.74 13.1574C13.5944 13.3948 13.3948 13.5944 13.1574 13.74C12.733 14 12.1553 14 11 14C9.84467 14 9.26701 14 8.84265 13.74C8.6052 13.5944 8.40556 13.3948 8.26005 13.1574C8 12.733 8 12.1553 8 11Z" stroke="#5F6388" stroke-width="1.8"/>
<path d="M17 11C17 9.84467 17 9.26701 17.26 8.84265C17.4056 8.6052 17.6052 8.40556 17.8426 8.26005C18.267 8 18.8447 8 20 8C21.1553 8 21.733 8 22.1574 8.26005C22.3948 8.40556 22.5944 8.6052 22.74 8.84265C23 9.26701 23 9.84467 23 11C23 12.1553 23 12.733 22.74 13.1574C22.5944 13.3948 22.3948 13.5944 22.1574 13.74C21.733 14 21.1553 14 20 14C18.8447 14 18.267 14 17.8426 13.74C17.6052 13.5944 17.4056 13.3948 17.26 13.1574C17 12.733 17 12.1553 17 11Z" stroke="#5F6388" stroke-width="1.8"/>
</svg>
