<svg width="220" height="34" viewBox="0 0 220 34" fill="none" xmlns="http://www.w3.org/2000/svg">
<path d="M27.6013 7.06205C27.5561 6.89077 27.4664 6.73453 27.3411 6.60929C27.2159 6.48404 27.0597 6.39428 26.8884 6.34916C24.837 5.81635 22.6768 5.87373 20.6567 6.51471C18.6365 7.15569 16.8384 8.35419 15.4694 9.97222L14.3545 11.296L11.7497 10.6676C11.1164 10.4468 10.4247 10.4626 9.80218 10.7121C9.17968 10.9616 8.66848 11.4279 8.36298 12.0249L6.16279 15.9248C6.0857 16.0614 6.04183 16.2143 6.03472 16.371C6.02761 16.5277 6.05747 16.6838 6.12187 16.8268C6.18628 16.9699 6.28343 17.0957 6.40547 17.1943C6.52752 17.2928 6.67103 17.3612 6.82441 17.394L9.89716 18.0527C9.63687 18.8451 9.45101 19.66 9.34199 20.4868C9.32223 20.6387 9.33762 20.7931 9.38697 20.9382C9.43633 21.0832 9.51833 21.2149 9.62665 21.3232L12.7268 24.4233C12.8196 24.5162 12.9298 24.5899 13.0511 24.6402C13.1724 24.6905 13.3024 24.7163 13.4338 24.7163C13.4626 24.7163 13.4914 24.7149 13.5207 24.7124C14.366 24.6364 15.2011 24.4722 16.0122 24.2224L16.6559 27.2256C16.6888 27.379 16.7573 27.5224 16.8558 27.6444C16.9544 27.7664 17.0803 27.8635 17.2233 27.9279C17.3663 27.9923 17.5224 28.0222 17.6791 28.0151C17.8357 28.0081 17.9885 27.9642 18.1252 27.8872L22.0304 25.6846C22.5801 25.3506 23.0094 24.8507 23.2566 24.2569C23.5037 23.6631 23.5558 23.0062 23.4054 22.3809L22.7367 19.6219L23.9738 18.4844C25.5979 17.1193 26.801 15.3211 27.4431 13.299C28.0853 11.2769 28.1401 9.11407 27.6013 7.06205ZM8.57246 15.7232L10.1286 12.9634C10.2253 12.7761 10.3899 12.6328 10.5889 12.563C10.7878 12.4932 11.0059 12.5021 11.1984 12.5879L12.9158 13.0041L12.2658 13.7759C11.6496 14.5145 11.1166 15.3187 10.6765 16.174L8.57246 15.7232ZM21.0427 23.9454L18.3269 25.477L17.8974 23.4724C18.768 23.0382 19.5791 22.4938 20.3107 21.8525L21.0543 21.1689L21.4577 22.8335C21.51 23.039 21.4983 23.2557 21.4242 23.4544C21.35 23.6531 21.2169 23.8244 21.0427 23.9454ZM22.6569 16.98L18.9724 20.3663C17.5139 21.6276 15.715 22.4293 13.802 22.6705L11.3977 20.2662C11.7206 18.3482 12.5494 16.551 13.7985 15.0602L15.4769 13.0675C15.5048 13.0382 15.5309 13.0073 15.555 12.9747L16.9899 11.271C18.0509 10.0179 19.4254 9.06885 20.9732 8.52069C22.5209 7.97253 24.1864 7.84493 25.7995 8.15093C26.1129 9.76915 25.9867 11.4418 25.434 12.9946C24.8812 14.5475 23.9223 15.9238 22.6569 16.98ZM21.7339 10.8163C21.4373 10.8163 21.1473 10.9043 20.9006 11.0691C20.6539 11.2339 20.4616 11.4682 20.3481 11.7423C20.2346 12.0164 20.2049 12.318 20.2628 12.6089C20.3206 12.8999 20.4635 13.1672 20.6733 13.3769C20.8831 13.5867 21.1503 13.7296 21.4413 13.7875C21.7323 13.8453 22.0339 13.8156 22.308 13.7021C22.582 13.5886 22.8163 13.3963 22.9811 13.1496C23.146 12.903 23.2339 12.613 23.2339 12.3163C23.2339 12.1193 23.1952 11.9242 23.1198 11.7422C23.0444 11.5602 22.9339 11.3949 22.7946 11.2556C22.6553 11.1163 22.4899 11.0058 22.3079 10.9304C22.1259 10.855 21.9309 10.8163 21.7339 10.8163L21.7339 10.8163Z" fill="#5F6388"/>
<path d="M39.8984 10.625V22H38.3906V10.625H39.8984ZM46.9062 10.625L41.9688 16.8828H39.2969L39.0625 15.6328H41.0703L45.0391 10.625H46.9062ZM45.3906 22L41.1172 16.6875L41.9609 15.3672L47.2344 22H45.3906ZM57.4294 15.9531V16.6719C57.4294 17.526 57.3226 18.2917 57.1091 18.9688C56.8955 19.6458 56.5882 20.2214 56.1872 20.6953C55.7861 21.1693 55.3044 21.5312 54.7419 21.7812C54.1846 22.0312 53.5596 22.1562 52.8669 22.1562C52.195 22.1562 51.5778 22.0312 51.0153 21.7812C50.458 21.5312 49.9736 21.1693 49.5622 20.6953C49.1559 20.2214 48.8408 19.6458 48.6169 18.9688C48.3929 18.2917 48.2809 17.526 48.2809 16.6719V15.9531C48.2809 15.099 48.3903 14.3359 48.6091 13.6641C48.833 12.987 49.1481 12.4115 49.5544 11.9375C49.9606 11.4583 50.4424 11.0938 50.9997 10.8438C51.5622 10.5938 52.1794 10.4688 52.8512 10.4688C53.544 10.4688 54.169 10.5938 54.7262 10.8438C55.2887 11.0938 55.7705 11.4583 56.1716 11.9375C56.5778 12.4115 56.8877 12.987 57.1012 13.6641C57.32 14.3359 57.4294 15.099 57.4294 15.9531ZM55.9372 16.6719V15.9375C55.9372 15.2604 55.8669 14.6615 55.7262 14.1406C55.5908 13.6198 55.3903 13.1823 55.1247 12.8281C54.8591 12.474 54.5335 12.2057 54.1481 12.0234C53.7679 11.8411 53.3356 11.75 52.8512 11.75C52.3825 11.75 51.958 11.8411 51.5778 12.0234C51.2028 12.2057 50.8799 12.474 50.6091 12.8281C50.3434 13.1823 50.1377 13.6198 49.9919 14.1406C49.846 14.6615 49.7731 15.2604 49.7731 15.9375V16.6719C49.7731 17.3542 49.846 17.9583 49.9919 18.4844C50.1377 19.0052 50.346 19.4453 50.6169 19.8047C50.8929 20.1589 51.2184 20.4271 51.5934 20.6094C51.9736 20.7917 52.3981 20.8828 52.8669 20.8828C53.3565 20.8828 53.7914 20.7917 54.1716 20.6094C54.5518 20.4271 54.8721 20.1589 55.1325 19.8047C55.3981 19.4453 55.5986 19.0052 55.7341 18.4844C55.8695 17.9583 55.9372 17.3542 55.9372 16.6719ZM60.4837 10.625H61.9447L65.6712 19.8984L69.39 10.625H70.8587L66.2337 22H65.0931L60.4837 10.625ZM60.0072 10.625H61.2962L61.5072 17.5625V22H60.0072V10.625ZM70.0384 10.625H71.3275V22H69.8275V17.5625L70.0384 10.625ZM78.6475 11.6328L74.8819 22H73.3428L77.6787 10.625H78.6709L78.6475 11.6328ZM81.8037 22L78.0303 11.6328L78.0069 10.625H78.9991L83.3506 22H81.8037ZM81.6084 17.7891V19.0234H75.2178V17.7891H81.6084ZM92.6237 15.5156V16.7422H86.4675V15.5156H92.6237ZM86.7019 10.625V22H85.1941V10.625H86.7019ZM93.9362 10.625V22H92.4362V10.625H93.9362ZM106.053 20.7734V22H97.4437V20.7734H106.053ZM97.6859 20.7734V24.7969H96.1937L96.1859 20.7734H97.6859ZM107.366 20.7734L107.35 24.7891H105.858V20.7734H107.366ZM104.577 10.625V11.8594H99.5922V10.625H104.577ZM105.873 10.625V22H104.373V10.625H105.873ZM99.0766 10.625H100.584L100.35 15.2031C100.319 15.8906 100.254 16.526 100.155 17.1094C100.056 17.6875 99.9333 18.2161 99.7875 18.6953C99.6417 19.1745 99.475 19.6042 99.2875 19.9844C99.1 20.3594 98.8995 20.6849 98.6859 20.9609C98.4724 21.2318 98.2484 21.4557 98.0141 21.6328C97.7849 21.8047 97.5531 21.9271 97.3187 22H96.6312V20.7734H97.1156C97.251 20.6276 97.4047 20.4167 97.5766 20.1406C97.7536 19.8646 97.9281 19.5078 98.1 19.0703C98.2771 18.6276 98.4307 18.0885 98.5609 17.4531C98.6964 16.8177 98.7875 16.0677 98.8344 15.2031L99.0766 10.625ZM110.678 15.2578H113.779C114.613 15.2578 115.316 15.3984 115.889 15.6797C116.462 15.9557 116.897 16.3438 117.193 16.8438C117.49 17.3438 117.639 17.9297 117.639 18.6016C117.639 19.1016 117.555 19.5599 117.389 19.9766C117.222 20.388 116.975 20.7474 116.647 21.0547C116.318 21.3568 115.915 21.5911 115.436 21.7578C114.956 21.9193 114.404 22 113.779 22H109.529V10.625H111.037V20.7734H113.779C114.337 20.7734 114.787 20.6719 115.131 20.4688C115.48 20.2604 115.735 19.9896 115.897 19.6562C116.058 19.3229 116.139 18.9661 116.139 18.5859C116.139 18.2057 116.058 17.8568 115.897 17.5391C115.735 17.2214 115.48 16.9688 115.131 16.7812C114.787 16.5885 114.337 16.4922 113.779 16.4922H110.678V15.2578ZM120.522 10.625V22H119.014V10.625H120.522Z" fill="#768396"/>
<path d="M208.752 20.5515L214.402 14.8915C214.496 14.7985 214.571 14.6879 214.621 14.566C214.672 14.4442 214.698 14.3135 214.698 14.1815C214.698 14.0494 214.672 13.9187 214.621 13.7969C214.571 13.675 214.496 13.5644 214.402 13.4715C214.215 13.2852 213.962 13.1807 213.697 13.1807C213.433 13.1807 213.18 13.2852 212.992 13.4715L207.992 18.4215L203.042 13.4715C202.855 13.2852 202.602 13.1807 202.337 13.1807C202.073 13.1807 201.82 13.2852 201.632 13.4715C201.538 13.5641 201.463 13.6745 201.411 13.7964C201.36 13.9183 201.333 14.0491 201.332 14.1815C201.333 14.3138 201.36 14.4446 201.411 14.5665C201.463 14.6884 201.538 14.7988 201.632 14.8915L207.282 20.5515C207.376 20.653 207.49 20.734 207.616 20.7894C207.743 20.8448 207.879 20.8734 208.017 20.8734C208.156 20.8734 208.292 20.8448 208.419 20.7894C208.545 20.734 208.659 20.653 208.752 20.5515Z" fill="#768396"/>
</svg>
