<svg width="220" height="34" viewBox="0 0 220 34" fill="none" xmlns="http://www.w3.org/2000/svg">
<rect x="38" y="15" width="4" height="4" rx="2" fill="#5F6388"/>
<rect x="38" y="15" width="4" height="4" rx="2" stroke="#5F6388" stroke-width="4"/>
<path d="M62.8984 10.625V22H61.3906V10.625H62.8984ZM69.9062 10.625L64.9688 16.8828H62.2969L62.0625 15.6328H64.0703L68.0391 10.625H69.9062ZM68.3906 22L64.1172 16.6875L64.9609 15.3672L70.2344 22H68.3906ZM80.4294 15.9531V16.6719C80.4294 17.526 80.3226 18.2917 80.1091 18.9688C79.8955 19.6458 79.5882 20.2214 79.1872 20.6953C78.7861 21.1693 78.3044 21.5312 77.7419 21.7812C77.1846 22.0312 76.5596 22.1562 75.8669 22.1562C75.195 22.1562 74.5778 22.0312 74.0153 21.7812C73.458 21.5312 72.9736 21.1693 72.5622 20.6953C72.1559 20.2214 71.8408 19.6458 71.6169 18.9688C71.3929 18.2917 71.2809 17.526 71.2809 16.6719V15.9531C71.2809 15.099 71.3903 14.3359 71.6091 13.6641C71.833 12.987 72.1481 12.4115 72.5544 11.9375C72.9606 11.4583 73.4424 11.0938 73.9997 10.8438C74.5622 10.5938 75.1794 10.4688 75.8512 10.4688C76.544 10.4688 77.169 10.5938 77.7262 10.8438C78.2887 11.0938 78.7705 11.4583 79.1716 11.9375C79.5778 12.4115 79.8877 12.987 80.1012 13.6641C80.32 14.3359 80.4294 15.099 80.4294 15.9531ZM78.9372 16.6719V15.9375C78.9372 15.2604 78.8669 14.6615 78.7262 14.1406C78.5908 13.6198 78.3903 13.1823 78.1247 12.8281C77.8591 12.474 77.5335 12.2057 77.1481 12.0234C76.7679 11.8411 76.3356 11.75 75.8512 11.75C75.3825 11.75 74.958 11.8411 74.5778 12.0234C74.2028 12.2057 73.8799 12.474 73.6091 12.8281C73.3434 13.1823 73.1377 13.6198 72.9919 14.1406C72.846 14.6615 72.7731 15.2604 72.7731 15.9375V16.6719C72.7731 17.3542 72.846 17.9583 72.9919 18.4844C73.1377 19.0052 73.346 19.4453 73.6169 19.8047C73.8929 20.1589 74.2184 20.4271 74.5934 20.6094C74.9736 20.7917 75.3981 20.8828 75.8669 20.8828C76.3565 20.8828 76.7914 20.7917 77.1716 20.6094C77.5518 20.4271 77.8721 20.1589 78.1325 19.8047C78.3981 19.4453 78.5986 19.0052 78.7341 18.4844C78.8695 17.9583 78.9372 17.3542 78.9372 16.6719ZM83.4837 10.625H84.9447L88.6712 19.8984L92.39 10.625H93.8587L89.2337 22H88.0931L83.4837 10.625ZM83.0072 10.625H84.2962L84.5072 17.5625V22H83.0072V10.625ZM93.0384 10.625H94.3275V22H92.8275V17.5625L93.0384 10.625ZM101.647 11.6328L97.8819 22H96.3428L100.679 10.625H101.671L101.647 11.6328ZM104.804 22L101.03 11.6328L101.007 10.625H101.999L106.351 22H104.804ZM104.608 17.7891V19.0234H98.2178V17.7891H104.608ZM115.624 15.5156V16.7422H109.467V15.5156H115.624ZM109.702 10.625V22H108.194V10.625H109.702ZM116.936 10.625V22H115.436V10.625H116.936ZM129.053 20.7734V22H120.444V20.7734H129.053ZM120.686 20.7734V24.7969H119.194L119.186 20.7734H120.686ZM130.366 20.7734L130.35 24.7891H128.858V20.7734H130.366ZM127.577 10.625V11.8594H122.592V10.625H127.577ZM128.873 10.625V22H127.373V10.625H128.873ZM122.077 10.625H123.584L123.35 15.2031C123.319 15.8906 123.254 16.526 123.155 17.1094C123.056 17.6875 122.933 18.2161 122.787 18.6953C122.642 19.1745 122.475 19.6042 122.287 19.9844C122.1 20.3594 121.899 20.6849 121.686 20.9609C121.472 21.2318 121.248 21.4557 121.014 21.6328C120.785 21.8047 120.553 21.9271 120.319 22H119.631V20.7734H120.116C120.251 20.6276 120.405 20.4167 120.577 20.1406C120.754 19.8646 120.928 19.5078 121.1 19.0703C121.277 18.6276 121.431 18.0885 121.561 17.4531C121.696 16.8177 121.787 16.0677 121.834 15.2031L122.077 10.625ZM136.795 11.6328L133.029 22H131.49L135.826 10.625H136.818L136.795 11.6328ZM139.951 22L136.178 11.6328L136.154 10.625H137.147L141.498 22H139.951ZM139.756 17.7891V19.0234H133.365V17.7891H139.756ZM154.708 20.8125V22H147.263V20.9609L150.99 16.8125C151.448 16.3021 151.802 15.8698 152.052 15.5156C152.307 15.1562 152.484 14.8359 152.583 14.5547C152.688 14.2682 152.74 13.9766 152.74 13.6797C152.74 13.3047 152.662 12.9661 152.505 12.6641C152.354 12.3568 152.13 12.112 151.833 11.9297C151.537 11.7474 151.177 11.6562 150.755 11.6562C150.25 11.6562 149.828 11.7552 149.49 11.9531C149.156 12.1458 148.906 12.4167 148.74 12.7656C148.573 13.1146 148.49 13.5156 148.49 13.9688H147.044C147.044 13.3281 147.185 12.7422 147.466 12.2109C147.747 11.6797 148.164 11.2578 148.716 10.9453C149.268 10.6276 149.948 10.4688 150.755 10.4688C151.474 10.4688 152.089 10.5964 152.599 10.8516C153.109 11.1016 153.5 11.4557 153.771 11.9141C154.047 12.3672 154.185 12.8984 154.185 13.5078C154.185 13.8411 154.128 14.1797 154.013 14.5234C153.904 14.862 153.75 15.2005 153.552 15.5391C153.359 15.8776 153.133 16.2109 152.872 16.5391C152.617 16.8672 152.344 17.1901 152.052 17.5078L149.005 20.8125H154.708Z" fill="#768396"/>
</svg>
