<svg width="252" height="48" viewBox="0 0 252 48" fill="none" xmlns="http://www.w3.org/2000/svg">
<path d="M45.2925 8.71244L47.5925 11.0024H38.0025C37.7373 11.0024 37.483 11.1078 37.2954 11.2953C37.1079 11.4829 37.0025 11.7372 37.0025 12.0024C37.0025 12.2677 37.1079 12.522 37.2954 12.7095C37.483 12.8971 37.7373 13.0024 38.0025 13.0024H47.5925L45.2925 15.2924C45.1988 15.3854 45.1244 15.496 45.0737 15.6179C45.0229 15.7397 44.9967 15.8704 44.9967 16.0024C44.9967 16.1345 45.0229 16.2652 45.0737 16.387C45.1244 16.5089 45.1988 16.6195 45.2925 16.7124C45.3855 16.8062 45.4961 16.8806 45.618 16.9313C45.7398 16.9821 45.8705 17.0082 46.0025 17.0082C46.1346 17.0082 46.2653 16.9821 46.3871 16.9313C46.509 16.8806 46.6196 16.8062 46.7125 16.7124L50.7125 12.7124C50.8036 12.6173 50.875 12.5052 50.9225 12.3824C51.0226 12.139 51.0226 11.8659 50.9225 11.6224C50.875 11.4997 50.8036 11.3875 50.7125 11.2924L46.7125 7.29244C46.6193 7.1992 46.5086 7.12524 46.3868 7.07478C46.265 7.02432 46.1344 6.99835 46.0025 6.99835C45.8707 6.99835 45.7401 7.02432 45.6183 7.07478C45.4965 7.12524 45.3858 7.1992 45.2925 7.29244C45.1993 7.38568 45.1253 7.49637 45.0749 7.61819C45.0244 7.74001 44.9985 7.87058 44.9985 8.00244C44.9985 8.1343 45.0244 8.26487 45.0749 8.38669C45.1253 8.50851 45.1993 8.6192 45.2925 8.71244ZM41.0025 21.0024C41.0025 20.7372 40.8972 20.4829 40.7097 20.2953C40.5221 20.1078 40.2678 20.0024 40.0025 20.0024H34.0025C33.7373 20.0024 33.483 19.8971 33.2954 19.7095C33.1079 19.522 33.0025 19.2677 33.0025 19.0024V5.00244C33.0025 4.73722 33.1079 4.48287 33.2954 4.29533C33.483 4.1078 33.7373 4.00244 34.0025 4.00244H40.0025C40.2678 4.00244 40.5221 3.89708 40.7097 3.70955C40.8972 3.52201 41.0025 3.26766 41.0025 3.00244C41.0025 2.73722 40.8972 2.48287 40.7097 2.29533C40.5221 2.1078 40.2678 2.00244 40.0025 2.00244H34.0025C33.2069 2.00244 32.4438 2.31851 31.8812 2.88112C31.3186 3.44373 31.0025 4.20679 31.0025 5.00244V19.0024C31.0025 19.7981 31.3186 20.5612 31.8812 21.1238C32.4438 21.6864 33.2069 22.0024 34.0025 22.0024H40.0025C40.2678 22.0024 40.5221 21.8971 40.7097 21.7095C40.8972 21.522 41.0025 21.2677 41.0025 21.0024Z" fill="#5F6388"/>
<path d="M66.375 11.6797H63.4922L63.4766 10.4688H66.0938C66.526 10.4688 66.9036 10.3958 67.2266 10.25C67.5495 10.1042 67.7995 9.89583 67.9766 9.625C68.1589 9.34896 68.25 9.02083 68.25 8.64062C68.25 8.22396 68.1693 7.88542 68.0078 7.625C67.8516 7.35938 67.6094 7.16667 67.2812 7.04688C66.9583 6.92188 66.5469 6.85938 66.0469 6.85938H63.8281V17H62.3203V5.625H66.0469C66.6302 5.625 67.151 5.6849 67.6094 5.80469C68.0677 5.91927 68.4557 6.10156 68.7734 6.35156C69.0964 6.59635 69.3411 6.90885 69.5078 7.28906C69.6745 7.66927 69.7578 8.125 69.7578 8.65625C69.7578 9.125 69.638 9.54948 69.3984 9.92969C69.1589 10.3047 68.8255 10.612 68.3984 10.8516C67.9766 11.0911 67.4818 11.2448 66.9141 11.3125L66.375 11.6797ZM66.3047 17H62.8984L63.75 15.7734H66.3047C66.7839 15.7734 67.1901 15.6901 67.5234 15.5234C67.862 15.3568 68.1198 15.1224 68.2969 14.8203C68.474 14.513 68.5625 14.151 68.5625 13.7344C68.5625 13.3125 68.487 12.9479 68.3359 12.6406C68.1849 12.3333 67.9479 12.0964 67.625 11.9297C67.3021 11.763 66.8854 11.6797 66.375 11.6797H64.2266L64.2422 10.4688H67.1797L67.5 10.9062C68.0469 10.9531 68.5104 11.1094 68.8906 11.375C69.2708 11.6354 69.5599 11.9688 69.7578 12.375C69.9609 12.7812 70.0625 13.2292 70.0625 13.7188C70.0625 14.4271 69.9062 15.026 69.5938 15.5156C69.2865 16 68.8516 16.3698 68.2891 16.625C67.7266 16.875 67.0651 17 66.3047 17ZM73.8278 10.2578H76.9294C77.7627 10.2578 78.4658 10.3984 79.0387 10.6797C79.6117 10.9557 80.0466 11.3438 80.3434 11.8438C80.6403 12.3438 80.7887 12.9297 80.7887 13.6016C80.7887 14.1016 80.7054 14.5599 80.5387 14.9766C80.3721 15.388 80.1247 15.7474 79.7966 16.0547C79.4684 16.3568 79.0648 16.5911 78.5856 16.7578C78.1065 16.9193 77.5544 17 76.9294 17H72.6794V5.625H74.1872V15.7734H76.9294C77.4867 15.7734 77.9372 15.6719 78.2809 15.4688C78.6299 15.2604 78.8851 14.9896 79.0466 14.6562C79.208 14.3229 79.2887 13.9661 79.2887 13.5859C79.2887 13.2057 79.208 12.8568 79.0466 12.5391C78.8851 12.2214 78.6299 11.9688 78.2809 11.7812C77.9372 11.5885 77.4867 11.4922 76.9294 11.4922H73.8278V10.2578ZM83.6716 5.625V17H82.1637V5.625H83.6716ZM88.3431 14.3906L93.9447 5.625H95.4525V17H93.9447V8.22656L88.3431 17H86.8431V5.625H88.3431V14.3906ZM92.3431 2.80469H93.515C93.515 3.21094 93.4212 3.57292 93.2337 3.89062C93.0462 4.20312 92.778 4.44792 92.4291 4.625C92.0801 4.80208 91.666 4.89062 91.1869 4.89062C90.4629 4.89062 89.89 4.69792 89.4681 4.3125C89.0515 3.92188 88.8431 3.41927 88.8431 2.80469H90.015C90.015 3.11198 90.1035 3.38281 90.2806 3.61719C90.4577 3.85156 90.7598 3.96875 91.1869 3.96875C91.6035 3.96875 91.9004 3.85156 92.0775 3.61719C92.2546 3.38281 92.3431 3.11198 92.3431 2.80469ZM102.718 5.625V17H101.233V5.625H102.718ZM106.374 5.625V6.85938H97.585V5.625H106.374ZM109.952 14.3906L115.553 5.625H117.061V17H115.553V8.22656L109.952 17H108.452V5.625H109.952V14.3906Z" fill="#768396"/>
</svg>
