<svg width="196" height="24" viewBox="0 0 196 24" fill="none" xmlns="http://www.w3.org/2000/svg">
<rect x="14" y="10" width="4" height="4" rx="2" fill="#5051F9"/>
<rect x="14" y="10" width="4" height="4" rx="2" stroke="#5051F9" stroke-width="4"/>
<path d="M38.8984 5.625V17H37.3906V5.625H38.8984ZM45.9062 5.625L40.9688 11.8828H38.2969L38.0625 10.6328H40.0703L44.0391 5.625H45.9062ZM44.3906 17L40.1172 11.6875L40.9609 10.3672L46.2344 17H44.3906ZM56.4294 10.9531V11.6719C56.4294 12.526 56.3226 13.2917 56.1091 13.9688C55.8955 14.6458 55.5882 15.2214 55.1872 15.6953C54.7861 16.1693 54.3044 16.5312 53.7419 16.7812C53.1846 17.0312 52.5596 17.1562 51.8669 17.1562C51.195 17.1562 50.5778 17.0312 50.0153 16.7812C49.458 16.5312 48.9736 16.1693 48.5622 15.6953C48.1559 15.2214 47.8408 14.6458 47.6169 13.9688C47.3929 13.2917 47.2809 12.526 47.2809 11.6719V10.9531C47.2809 10.099 47.3903 9.33594 47.6091 8.66406C47.833 7.98698 48.1481 7.41146 48.5544 6.9375C48.9606 6.45833 49.4424 6.09375 49.9997 5.84375C50.5622 5.59375 51.1794 5.46875 51.8512 5.46875C52.544 5.46875 53.169 5.59375 53.7262 5.84375C54.2887 6.09375 54.7705 6.45833 55.1716 6.9375C55.5778 7.41146 55.8877 7.98698 56.1012 8.66406C56.32 9.33594 56.4294 10.099 56.4294 10.9531ZM54.9372 11.6719V10.9375C54.9372 10.2604 54.8669 9.66146 54.7262 9.14062C54.5908 8.61979 54.3903 8.18229 54.1247 7.82812C53.8591 7.47396 53.5335 7.20573 53.1481 7.02344C52.7679 6.84115 52.3356 6.75 51.8512 6.75C51.3825 6.75 50.958 6.84115 50.5778 7.02344C50.2028 7.20573 49.8799 7.47396 49.6091 7.82812C49.3434 8.18229 49.1377 8.61979 48.9919 9.14062C48.846 9.66146 48.7731 10.2604 48.7731 10.9375V11.6719C48.7731 12.3542 48.846 12.9583 48.9919 13.4844C49.1377 14.0052 49.346 14.4453 49.6169 14.8047C49.8929 15.1589 50.2184 15.4271 50.5934 15.6094C50.9736 15.7917 51.3981 15.8828 51.8669 15.8828C52.3565 15.8828 52.7914 15.7917 53.1716 15.6094C53.5518 15.4271 53.8721 15.1589 54.1325 14.8047C54.3981 14.4453 54.5986 14.0052 54.7341 13.4844C54.8695 12.9583 54.9372 12.3542 54.9372 11.6719ZM59.4837 5.625H60.9447L64.6712 14.8984L68.39 5.625H69.8587L65.2337 17H64.0931L59.4837 5.625ZM59.0072 5.625H60.2962L60.5072 12.5625V17H59.0072V5.625ZM69.0384 5.625H70.3275V17H68.8275V12.5625L69.0384 5.625ZM77.6475 6.63281L73.8819 17H72.3428L76.6787 5.625H77.6709L77.6475 6.63281ZM80.8037 17L77.0303 6.63281L77.0069 5.625H77.9991L82.3506 17H80.8037ZM80.6084 12.7891V14.0234H74.2178V12.7891H80.6084ZM91.6237 10.5156V11.7422H85.4675V10.5156H91.6237ZM85.7019 5.625V17H84.1941V5.625H85.7019ZM92.9362 5.625V17H91.4362V5.625H92.9362ZM105.053 15.7734V17H96.4437V15.7734H105.053ZM96.6859 15.7734V19.7969H95.1937L95.1859 15.7734H96.6859ZM106.366 15.7734L106.35 19.7891H104.858V15.7734H106.366ZM103.577 5.625V6.85938H98.5922V5.625H103.577ZM104.873 5.625V17H103.373V5.625H104.873ZM98.0766 5.625H99.5844L99.35 10.2031C99.3187 10.8906 99.2536 11.526 99.1547 12.1094C99.0557 12.6875 98.9333 13.2161 98.7875 13.6953C98.6417 14.1745 98.475 14.6042 98.2875 14.9844C98.1 15.3594 97.8995 15.6849 97.6859 15.9609C97.4724 16.2318 97.2484 16.4557 97.0141 16.6328C96.7849 16.8047 96.5531 16.9271 96.3187 17H95.6312V15.7734H96.1156C96.251 15.6276 96.4047 15.4167 96.5766 15.1406C96.7536 14.8646 96.9281 14.5078 97.1 14.0703C97.2771 13.6276 97.4307 13.0885 97.5609 12.4531C97.6964 11.8177 97.7875 11.0677 97.8344 10.2031L98.0766 5.625ZM112.795 6.63281L109.029 17H107.49L111.826 5.625H112.818L112.795 6.63281ZM115.951 17L112.178 6.63281L112.154 5.625H113.147L117.498 17H115.951ZM115.756 12.7891V14.0234H109.365V12.7891H115.756ZM125.365 10.6016H126.396C126.901 10.6016 127.318 10.5182 127.646 10.3516C127.979 10.1797 128.227 9.94792 128.388 9.65625C128.555 9.35938 128.638 9.02604 128.638 8.65625C128.638 8.21875 128.565 7.85156 128.419 7.55469C128.274 7.25781 128.055 7.03385 127.763 6.88281C127.471 6.73177 127.102 6.65625 126.654 6.65625C126.247 6.65625 125.888 6.73698 125.576 6.89844C125.268 7.05469 125.026 7.27865 124.849 7.57031C124.677 7.86198 124.591 8.20573 124.591 8.60156H123.146C123.146 8.02344 123.292 7.4974 123.583 7.02344C123.875 6.54948 124.284 6.17188 124.81 5.89062C125.341 5.60938 125.956 5.46875 126.654 5.46875C127.341 5.46875 127.943 5.59115 128.458 5.83594C128.974 6.07552 129.375 6.4349 129.662 6.91406C129.948 7.38802 130.091 7.97917 130.091 8.6875C130.091 8.97396 130.024 9.28125 129.888 9.60938C129.758 9.93229 129.552 10.2344 129.271 10.5156C128.995 10.7969 128.636 11.0286 128.193 11.2109C127.75 11.388 127.219 11.4766 126.599 11.4766H125.365V10.6016ZM125.365 11.7891V10.9219H126.599C127.323 10.9219 127.922 11.0078 128.396 11.1797C128.87 11.3516 129.242 11.5807 129.513 11.8672C129.789 12.1536 129.982 12.4688 130.091 12.8125C130.206 13.151 130.263 13.4896 130.263 13.8281C130.263 14.3594 130.172 14.8307 129.99 15.2422C129.813 15.6536 129.56 16.0026 129.232 16.2891C128.909 16.5755 128.529 16.7917 128.091 16.9375C127.654 17.0833 127.177 17.1562 126.662 17.1562C126.167 17.1562 125.701 17.0859 125.263 16.9453C124.831 16.8047 124.448 16.6016 124.115 16.3359C123.781 16.0651 123.521 15.7344 123.333 15.3438C123.146 14.9479 123.052 14.4974 123.052 13.9922H124.497C124.497 14.388 124.583 14.7344 124.755 15.0312C124.932 15.3281 125.182 15.5599 125.505 15.7266C125.833 15.888 126.219 15.9688 126.662 15.9688C127.104 15.9688 127.484 15.8932 127.802 15.7422C128.125 15.5859 128.372 15.3516 128.544 15.0391C128.721 14.7266 128.81 14.3333 128.81 13.8594C128.81 13.3854 128.711 12.9974 128.513 12.6953C128.315 12.388 128.034 12.1615 127.669 12.0156C127.31 11.8646 126.886 11.7891 126.396 11.7891H125.365Z" fill="#5051F9"/>
</svg>
