<svg width="23" height="20" viewBox="0 0 23 20" fill="none" xmlns="http://www.w3.org/2000/svg">
<path d="M11.8461 9.05768C11.7544 9.04935 11.6444 9.04935 11.5436 9.05768C9.36205 8.99102 7.62964 7.36602 7.62964 5.36602C7.62964 3.32435 9.44455 1.66602 11.6994 1.66602C13.9452 1.66602 15.7692 3.32435 15.7692 5.36602C15.7601 7.36602 14.0277 8.99102 11.8461 9.05768Z" stroke="#5F6388" stroke-width="1.5" stroke-linecap="round" stroke-linejoin="round"/>
<path d="M7.26303 12.134C5.04481 13.484 5.04481 15.684 7.26303 17.0257C9.78374 18.559 13.9177 18.559 16.4384 17.0257C18.6566 15.6757 18.6566 13.4757 16.4384 12.134C13.9269 10.609 9.79291 10.609 7.26303 12.134Z" stroke="#5F6388" stroke-width="1.5" stroke-linecap="round" stroke-linejoin="round"/>
</svg>
