<svg width="220" height="34" viewBox="0 0 220 34" fill="none" xmlns="http://www.w3.org/2000/svg">
<path d="M17 24C17.1978 24 17.3911 23.9414 17.5556 23.8315C17.72 23.7216 17.8482 23.5654 17.9239 23.3827C17.9996 23.2 18.0194 22.9989 17.9808 22.8049C17.9422 22.6109 17.847 22.4327 17.7071 22.2929C17.5673 22.153 17.3891 22.0578 17.1951 22.0192C17.0011 21.9806 16.8 22.0004 16.6173 22.0761C16.4346 22.1518 16.2784 22.28 16.1685 22.4444C16.0586 22.6089 16 22.8022 16 23C16 23.2652 16.1054 23.5196 16.2929 23.7071C16.4804 23.8946 16.7348 24 17 24ZM22 24C22.1978 24 22.3911 23.9414 22.5556 23.8315C22.72 23.7216 22.8482 23.5654 22.9239 23.3827C22.9996 23.2 23.0194 22.9989 22.9808 22.8049C22.9422 22.6109 22.847 22.4327 22.7071 22.2929C22.5673 22.153 22.3891 22.0578 22.1951 22.0192C22.0011 21.9806 21.8 22.0004 21.6173 22.0761C21.4346 22.1518 21.2784 22.28 21.1685 22.4444C21.0586 22.6089 21 22.8022 21 23C21 23.2652 21.1054 23.5196 21.2929 23.7071C21.4804 23.8946 21.7348 24 22 24ZM22 20C22.1978 20 22.3911 19.9414 22.5556 19.8315C22.72 19.7216 22.8482 19.5654 22.9239 19.3827C22.9996 19.2 23.0194 18.9989 22.9808 18.8049C22.9422 18.6109 22.847 18.4327 22.7071 18.2929C22.5673 18.153 22.3891 18.0578 22.1951 18.0192C22.0011 17.9806 21.8 18.0004 21.6173 18.0761C21.4346 18.1518 21.2784 18.28 21.1685 18.4444C21.0586 18.6089 21 18.8022 21 19C21 19.2652 21.1054 19.5196 21.2929 19.7071C21.4804 19.8946 21.7348 20 22 20ZM17 20C17.1978 20 17.3911 19.9414 17.5556 19.8315C17.72 19.7216 17.8482 19.5654 17.9239 19.3827C17.9996 19.2 18.0194 18.9989 17.9808 18.8049C17.9422 18.6109 17.847 18.4327 17.7071 18.2929C17.5673 18.153 17.3891 18.0578 17.1951 18.0192C17.0011 17.9806 16.8 18.0004 16.6173 18.0761C16.4346 18.1518 16.2784 18.28 16.1685 18.4444C16.0586 18.6089 16 18.8022 16 19C16 19.2652 16.1054 19.5196 16.2929 19.7071C16.4804 19.8946 16.7348 20 17 20ZM24 8H23V7C23 6.73478 22.8946 6.48043 22.7071 6.29289C22.5196 6.10536 22.2652 6 22 6C21.7348 6 21.4804 6.10536 21.2929 6.29289C21.1054 6.48043 21 6.73478 21 7V8H13V7C13 6.73478 12.8946 6.48043 12.7071 6.29289C12.5196 6.10536 12.2652 6 12 6C11.7348 6 11.4804 6.10536 11.2929 6.29289C11.1054 6.48043 11 6.73478 11 7V8H10C9.20435 8 8.44129 8.31607 7.87868 8.87868C7.31607 9.44129 7 10.2044 7 11V25C7 25.7956 7.31607 26.5587 7.87868 27.1213C8.44129 27.6839 9.20435 28 10 28H24C24.7956 28 25.5587 27.6839 26.1213 27.1213C26.6839 26.5587 27 25.7956 27 25V11C27 10.2044 26.6839 9.44129 26.1213 8.87868C25.5587 8.31607 24.7956 8 24 8ZM25 25C25 25.2652 24.8946 25.5196 24.7071 25.7071C24.5196 25.8946 24.2652 26 24 26H10C9.73478 26 9.48043 25.8946 9.29289 25.7071C9.10536 25.5196 9 25.2652 9 25V16H25V25ZM25 14H9V11C9 10.7348 9.10536 10.4804 9.29289 10.2929C9.48043 10.1054 9.73478 10 10 10H11V11C11 11.2652 11.1054 11.5196 11.2929 11.7071C11.4804 11.8946 11.7348 12 12 12C12.2652 12 12.5196 11.8946 12.7071 11.7071C12.8946 11.5196 13 11.2652 13 11V10H21V11C21 11.2652 21.1054 11.5196 21.2929 11.7071C21.4804 11.8946 21.7348 12 22 12C22.2652 12 22.5196 11.8946 22.7071 11.7071C22.8946 11.5196 23 11.2652 23 11V10H24C24.2652 10 24.5196 10.1054 24.7071 10.2929C24.8946 10.4804 25 10.7348 25 11V14ZM12 20C12.1978 20 12.3911 19.9414 12.5556 19.8315C12.72 19.7216 12.8482 19.5654 12.9239 19.3827C12.9996 19.2 13.0194 18.9989 12.9808 18.8049C12.9422 18.6109 12.847 18.4327 12.7071 18.2929C12.5673 18.153 12.3891 18.0578 12.1951 18.0192C12.0011 17.9806 11.8 18.0004 11.6173 18.0761C11.4346 18.1518 11.2784 18.28 11.1685 18.4444C11.0586 18.6089 11 18.8022 11 19C11 19.2652 11.1054 19.5196 11.2929 19.7071C11.4804 19.8946 11.7348 20 12 20ZM12 24C12.1978 24 12.3911 23.9414 12.5556 23.8315C12.72 23.7216 12.8482 23.5654 12.9239 23.3827C12.9996 23.2 13.0194 22.9989 12.9808 22.8049C12.9422 22.6109 12.847 22.4327 12.7071 22.2929C12.5673 22.153 12.3891 22.0578 12.1951 22.0192C12.0011 21.9806 11.8 22.0004 11.6173 22.0761C11.4346 22.1518 11.2784 22.28 11.1685 22.4444C11.0586 22.6089 11 22.8022 11 23C11 23.2652 11.1054 23.5196 11.2929 23.7071C11.4804 23.8946 11.7348 24 12 24Z" fill="#5F6388"/>
<path d="M39.8984 10.625V22H38.3906V10.625H39.8984ZM46.9062 10.625L41.9688 16.8828H39.2969L39.0625 15.6328H41.0703L45.0391 10.625H46.9062ZM45.3906 22L41.1172 16.6875L41.9609 15.3672L47.2344 22H45.3906ZM53.1325 11.6328L49.3669 22H47.8278L52.1637 10.625H53.1559L53.1325 11.6328ZM56.2887 22L52.5153 11.6328L52.4919 10.625H53.4841L57.8356 22H56.2887ZM56.0934 17.7891V19.0234H49.7028V17.7891H56.0934ZM67.1322 10.625V11.8594H61.9291V10.625H67.1322ZM68.4291 10.625V22H66.9212V10.625H68.4291ZM61.4134 10.625H62.9134L62.6556 16.1953C62.6192 16.9974 62.5567 17.7135 62.4681 18.3438C62.3848 18.9688 62.265 19.513 62.1087 19.9766C61.9525 20.4349 61.7494 20.8151 61.4994 21.1172C61.2494 21.4141 60.9421 21.6354 60.5775 21.7812C60.2181 21.9271 59.7858 22 59.2806 22H58.8744V20.7734L59.1869 20.75C59.4785 20.7292 59.7285 20.6641 59.9369 20.5547C60.1504 20.4401 60.3301 20.2682 60.4759 20.0391C60.627 19.8099 60.7494 19.513 60.8431 19.1484C60.9369 18.7839 61.0098 18.3385 61.0619 17.8125C61.1192 17.2812 61.1634 16.6615 61.1947 15.9531L61.4134 10.625ZM78.6944 20.7734V22H72.6709V20.7734H78.6944ZM72.9756 10.625V22H71.4678V10.625H72.9756ZM77.8975 15.5156V16.7422H72.6709V15.5156H77.8975ZM78.6162 10.625V11.8594H72.6709V10.625H78.6162ZM88.3112 15.5156V16.7422H82.155V15.5156H88.3112ZM82.3894 10.625V22H80.8816V10.625H82.3894ZM89.6237 10.625V22H88.1237V10.625H89.6237ZM101.741 20.7734V22H93.1312V20.7734H101.741ZM93.3734 20.7734V24.7969H91.8812L91.8734 20.7734H93.3734ZM103.053 20.7734L103.037 24.7891H101.545V20.7734H103.053ZM100.264 10.625V11.8594H95.2797V10.625H100.264ZM101.561 10.625V22H100.061V10.625H101.561ZM94.7641 10.625H96.2719L96.0375 15.2031C96.0062 15.8906 95.9411 16.526 95.8422 17.1094C95.7432 17.6875 95.6208 18.2161 95.475 18.6953C95.3292 19.1745 95.1625 19.6042 94.975 19.9844C94.7875 20.3594 94.587 20.6849 94.3734 20.9609C94.1599 21.2318 93.9359 21.4557 93.7016 21.6328C93.4724 21.8047 93.2406 21.9271 93.0062 22H92.3187V20.7734H92.8031C92.9385 20.6276 93.0922 20.4167 93.2641 20.1406C93.4411 19.8646 93.6156 19.5078 93.7875 19.0703C93.9646 18.6276 94.1182 18.0885 94.2484 17.4531C94.3839 16.8177 94.475 16.0677 94.5219 15.2031L94.7641 10.625ZM109.482 11.6328L105.717 22H104.178L108.514 10.625H109.506L109.482 11.6328ZM112.639 22L108.865 11.6328L108.842 10.625H109.834L114.186 22H112.639ZM112.443 17.7891V19.0234H106.053V17.7891H112.443ZM120.224 17.5391H117.185V16.3125H120.224C120.813 16.3125 121.289 16.2188 121.654 16.0312C122.019 15.8438 122.284 15.5833 122.451 15.25C122.623 14.9167 122.709 14.5365 122.709 14.1094C122.709 13.7188 122.623 13.3516 122.451 13.0078C122.284 12.6641 122.019 12.388 121.654 12.1797C121.289 11.9661 120.813 11.8594 120.224 11.8594H117.537V22H116.029V10.625H120.224C121.084 10.625 121.81 10.7734 122.404 11.0703C122.998 11.3672 123.448 11.7786 123.756 12.3047C124.063 12.8255 124.217 13.4219 124.217 14.0938C124.217 14.8229 124.063 15.4453 123.756 15.9609C123.448 16.4766 122.998 16.8698 122.404 17.1406C121.81 17.4062 121.084 17.5391 120.224 17.5391ZM127.544 15.2578H130.646C131.479 15.2578 132.182 15.3984 132.755 15.6797C133.328 15.9557 133.763 16.3438 134.06 16.8438C134.357 17.3438 134.505 17.9297 134.505 18.6016C134.505 19.1016 134.422 19.5599 134.255 19.9766C134.089 20.388 133.841 20.7474 133.513 21.0547C133.185 21.3568 132.781 21.5911 132.302 21.7578C131.823 21.9193 131.271 22 130.646 22H126.396V10.625H127.904V20.7734H130.646C131.203 20.7734 131.654 20.6719 131.997 20.4688C132.346 20.2604 132.602 19.9896 132.763 19.6562C132.925 19.3229 133.005 18.9661 133.005 18.5859C133.005 18.2057 132.925 17.8568 132.763 17.5391C132.602 17.2214 132.346 16.9688 131.997 16.7812C131.654 16.5885 131.203 16.4922 130.646 16.4922H127.544V15.2578Z" fill="#768396"/>
</svg>
